<svg id="visual" viewBox="0 0 960 540" width="960" height="540" xmlns="http://www.w3.org/2000/svg" xmlns:xlink="http://www.w3.org/1999/xlink" version="1.1"><rect width="960" height="540" fill="#07bc83"></rect><g><g transform="translate(866 132)"><path d="M71 -70C89.9 -52.1 101.6 -26.1 104.6 3C107.6 32 101.9 64.1 83 83.6C64.1 103 32 109.9 10.5 99.4C-11.1 89 -22.2 61.2 -39.1 41.7C-55.9 22.2 -78.5 11.1 -80.7 -2.2C-82.8 -15.5 -64.7 -31 -47.8 -48.9C-31 -66.8 -15.5 -87 5.3 -92.3C26.1 -97.6 52.1 -87.9 71 -70Z" fill="#35c497"></path></g><g transform="translate(183 473)"><path d="M58.1 -66.8C64.5 -51.7 51.4 -25.9 43.1 -8.2C34.9 9.4 31.5 18.8 25.1 26.5C18.8 34.3 9.4 40.5 -8.5 49C-26.4 57.5 -52.8 68.4 -67.4 60.6C-81.9 52.8 -84.5 26.4 -75.7 8.9C-66.8 -8.7 -46.5 -17.4 -32 -32.6C-17.4 -47.7 -8.7 -69.3 8.6 -77.9C25.9 -86.4 51.7 -82 58.1 -66.8Z" fill="#35c497"></path></g><g transform="translate(382 135)"><path d="M31.3 -33.7C47.2 -15.5 71.3 -7.7 74.2 3C77.2 13.7 59.1 27.3 43.2 46.5C27.3 65.6 13.7 90.2 -3.7 93.9C-21 97.6 -42 80.3 -53.6 61.1C-65.2 42 -67.4 21 -69.9 -2.5C-72.4 -26 -75.1 -51.9 -63.5 -70.1C-51.9 -88.3 -26 -98.8 -9.1 -89.7C7.7 -80.6 15.5 -51.9 31.3 -33.7Z" fill="#35c497"></path></g><g transform="translate(552 492)"><path d="M41.3 -43.5C49.8 -32.7 50.6 -16.3 48 -2.7C45.3 11 39.2 22.1 30.7 30.9C22.1 39.7 11 46.3 0.8 45.4C-9.4 44.6 -18.7 36.3 -29.5 27.5C-40.2 18.7 -52.4 9.4 -56.7 -4.4C-61.1 -18.1 -57.8 -36.3 -47 -47C-36.3 -57.8 -18.1 -61.2 -0.9 -60.3C16.3 -59.4 32.7 -54.2 41.3 -43.5Z" fill="#35c497"></path></g><g transform="translate(2 134)"><path d="M38.6 -34.7C51.6 -25.7 64.7 -12.8 67.3 2.6C70 18.1 62.1 36.2 49.2 57.3C36.2 78.5 18.1 102.7 0.1 102.5C-17.8 102.4 -35.7 78 -44.6 56.8C-53.5 35.7 -53.5 17.8 -51.8 1.7C-50.1 -14.4 -46.6 -28.8 -37.7 -37.7C-28.8 -46.7 -14.4 -50.3 -0.8 -49.5C12.8 -48.7 25.7 -43.6 38.6 -34.7Z" fill="#35c497"></path></g></g></svg>