<svg id="visual" viewBox="0 0 960 540" width="960" height="540" xmlns="http://www.w3.org/2000/svg" xmlns:xlink="http://www.w3.org/1999/xlink" version="1.1"><rect width="960" height="540" fill="#6FBAE0"></rect><g><g transform="translate(127 415)"><path d="M0 -53.1L34.2 -40.7L52.3 -9.2L46 26.6L18.2 49.9L-18.2 49.9L-46 26.6L-52.3 -9.2L-34.2 -40.7Z" fill="none" stroke="#02b8bf" stroke-width="4"></path></g><g transform="translate(89 315)"><path d="M0 -44L28.3 -33.7L43.3 -7.6L38.1 22L15 41.3L-15 41.3L-38.1 22L-43.3 -7.6L-28.3 -33.7Z" fill="none" stroke="#02b8bf" stroke-width="4"></path></g><g transform="translate(559 169)"><path d="M0 -52L33.4 -39.8L51.2 -9L45 26L17.8 48.9L-17.8 48.9L-45 26L-51.2 -9L-33.4 -39.8Z" fill="none" stroke="#02b8bf" stroke-width="4"></path></g><g transform="translate(4 141)"><path d="M0 -47L30.2 -36L46.3 -8.2L40.7 23.5L16.1 44.2L-16.1 44.2L-40.7 23.5L-46.3 -8.2L-30.2 -36Z" fill="none" stroke="#02b8bf" stroke-width="4"></path></g><g transform="translate(505 415)"><path d="M0 -52L33.4 -39.8L51.2 -9L45 26L17.8 48.9L-17.8 48.9L-45 26L-51.2 -9L-33.4 -39.8Z" fill="none" stroke="#02b8bf" stroke-width="4"></path></g><g transform="translate(415 356)"><path d="M0 -50L32.1 -38.3L49.2 -8.7L43.3 25L17.1 47L-17.1 47L-43.3 25L-49.2 -8.7L-32.1 -38.3Z" fill="none" stroke="#02b8bf" stroke-width="4"></path></g><g transform="translate(319 235)"><path d="M0 -46L29.6 -35.2L45.3 -8L39.8 23L15.7 43.2L-15.7 43.2L-39.8 23L-45.3 -8L-29.6 -35.2Z" fill="none" stroke="#02b8bf" stroke-width="4"></path></g><g transform="translate(843 151)"><path d="M0 -39L25.1 -29.9L38.4 -6.8L33.8 19.5L13.3 36.6L-13.3 36.6L-33.8 19.5L-38.4 -6.8L-25.1 -29.9Z" fill="none" stroke="#02b8bf" stroke-width="4"></path></g><g transform="translate(942 312)"><path d="M0 -52L33.4 -39.8L51.2 -9L45 26L17.8 48.9L-17.8 48.9L-45 26L-51.2 -9L-33.4 -39.8Z" fill="none" stroke="#02b8bf" stroke-width="4"></path></g><g transform="translate(799 47)"><path d="M0 -52L33.4 -39.8L51.2 -9L45 26L17.8 48.9L-17.8 48.9L-45 26L-51.2 -9L-33.4 -39.8Z" fill="none" stroke="#02b8bf" stroke-width="4"></path></g><g transform="translate(863 502)"><path d="M0 -41L26.4 -31.4L40.4 -7.1L35.5 20.5L14 38.5L-14 38.5L-35.5 20.5L-40.4 -7.1L-26.4 -31.4Z" fill="none" stroke="#02b8bf" stroke-width="4"></path></g></g></svg>