<svg xmlns="http://www.w3.org/2000/svg" viewBox="0 0 1440 320">
    <path fill="#0099ff" fill-opacity="1" d="M0,160L26.7,176C53.3,192,107,224,160,208C213.3,192,267,128,320,90.7C373.3,53,427,43,480,74.7C533.3,107,587,181,640,186.7C693.3,192,747,128,800,122.7C853.3,117,907,171,960,165.3C1013.3,160,1067,96,1120,101.3C1173.3,107,1227,181,1280,202.7C1333.3,224,1387,192,1413,176L1440,160L1440,0L1413.3,0C1386.7,0,1333,0,1280,0C1226.7,0,1173,0,1120,0C1066.7,0,1013,0,960,0C906.7,0,853,0,800,0C746.7,0,693,0,640,0C586.7,0,533,0,480,0C426.7,0,373,0,320,0C266.7,0,213,0,160,0C106.7,0,53,0,27,0L0,0Z"></path>
</svg>