<?xml version="1.0" standalone="no"?>
<!DOCTYPE svg PUBLIC "-//W3C//DTD SVG 20010904//EN" "http://www.w3.org/TR/2001/REC-SVG-20010904/DTD/svg10.dtd">
<svg version="1.0" xmlns="http://www.w3.org/2000/svg" width="512.000000pt" height="512.000000pt" viewBox="0 0 512.000000 512.000000" preserveAspectRatio="xMidYMid meet">

    <g transform="translate(0.000000,512.000000) scale(0.100000,-0.100000)" fill="#000000" stroke="none">
        <path d="M2370 5113 c-379 -36 -661 -116 -980 -278 -378 -193 -717 -497 -965
-865 -104 -156 -232 -419 -294 -605 -49 -150 -89 -321 -113 -490 -17 -118 -17
-512 0 -630 42 -295 120 -553 242 -800 137 -280 272 -468 494 -691 221 -220
412 -357 681 -489 188 -92 309 -137 500 -185 500 -126 1002 -102 1490 71 150
53 408 183 540 271 302 202 573 480 769 788 72 113 188 353 235 486 235 662
194 1372 -115 1993 -124 250 -263 447 -458 648 -214 222 -430 379 -711 518
-296 146 -572 225 -900 255 -102 9 -333 11 -415 3z m545 -342 c634 -107 1171
-457 1523 -995 170 -258 286 -563 339 -891 24 -153 24 -497 0 -650 -108 -668
-474 -1222 -1042 -1580 -243 -153 -537 -261 -850 -312 -154 -24 -497 -24 -650
1 -497 81 -907 288 -1256 636 -345 343 -555 758 -636 1255 -24 153 -24 497 0
650 105 647 447 1183 983 1541 306 205 675 333 1054 368 108 10 418 -4 535
-23z" />
        <path d="M2507 4096 c-49 -18 -64 -32 -88 -77 -18 -37 -19 -68 -19 -819 0
-752 1 -782 19 -818 11 -20 279 -296 598 -614 513 -512 583 -578 621 -588 75
-20 147 12 182 80 24 46 25 88 6 133 -8 18 -249 266 -560 577 l-546 545 0 733
c0 709 -1 734 -20 771 -35 69 -121 103 -193 77z" />
    </g>
</svg>