<svg version="1.0" xmlns="http://www.w3.org/2000/svg" width="512.000000pt" height="512.000000pt" viewBox="0 0 512.000000 512.000000" preserveAspectRatio="xMidYMid meet">

    <g transform="translate(0.000000,512.000000) scale(0.100000,-0.100000)" fill="#000000" stroke="none">
        <path d="M1165 4771 c-165 -95 -668 -676 -812 -938 -34 -61 -35 -67 -29 -131
22 -214 117 -521 248 -802 145 -309 390 -679 668 -1010 142 -169 475 -502 640
-642 598 -504 1201 -820 1744 -913 49 -8 102 -15 119 -15 57 0 215 102 454
292 308 246 551 486 592 586 34 81 -32 156 -271 315 -347 229 -670 411 -823
462 -71 24 -77 25 -112 10 -49 -20 -80 -51 -218 -210 -62 -71 -133 -149 -157
-173 l-45 -43 -64 16 c-208 54 -490 201 -724 378 -103 79 -277 247 -373 362
-182 217 -354 529 -423 768 l-22 78 54 55 c30 31 104 98 164 149 140 118 190
171 209 217 15 34 14 42 -5 102 -56 182 -465 871 -613 1033 -82 90 -120 101
-201 54z" />
        <path d="M2720 4640 l0 -160 48 0 c208 0 484 -68 699 -170 367 -175 644 -446
823 -805 112 -225 160 -394 182 -647 l12 -138 158 0 158 0 0 44 c0 77 -19 247
-41 361 -59 309 -224 662 -420 899 -359 434 -839 697 -1387 761 -70 8 -151 15
-179 15 l-53 0 0 -160z" />
        <path d="M2720 3843 l0 -160 79 -7 c233 -19 436 -116 606 -290 162 -165 252
-361 271 -588 l7 -78 158 0 159 0 0 41 c0 138 -61 383 -131 521 -122 243 -338
462 -574 580 -149 75 -315 121 -484 134 l-91 7 0 -160z" />
    </g>
</svg>