<svg id="svgContent" version="1.1" width="308" height="297" style="position: relative; width: 308px; height: 297px; margin:auto; user-select: none; cursor: default;" xmlns="http://www.w3.org/2000/svg" xmlns:xlink="http://www.w3.org/1999/xlink" viewBox="0 0 308 297">
    <g id="svgPath">
        <path d="M 127.995 25.517 L 102.500 51.039 102.190 47.519 L 101.879 44 79.440 44 L 57 44 57 70.244 L 57 96.487 28.351 125.149 L -0.298 153.811 9.865 168.355 C 15.455 176.354, 20.515 183.200, 21.110 183.568 C 21.705 183.935, 24.398 182.063, 27.096 179.406 L 32 174.575 32 235.788 L 32 297 51 297 L 70 297 70 242 L 70 187 102.500 187 L 135 187 135 242 L 135 297 205.500 297 L 276 297 276 235.788 L 276 174.575 280.784 179.288 C 283.416 181.879, 285.847 184, 286.187 184 C 286.527 184, 290.970 178.037, 296.061 170.750 C 301.151 163.462, 306.222 156.489, 307.329 155.254 C 308.436 154.019, 309.039 152.706, 308.671 152.337 C 308.302 151.968, 308 152.303, 308 153.081 C 308 153.859, 273.235 119.733, 230.745 77.245 L 153.490 -0.005 127.995 25.517 M 85.265 87.250 L 17.036 155.500 20.182 160.320 L 23.327 165.140 88.171 100.320 C 123.835 64.669, 153.349 35.388, 153.757 35.251 C 154.166 35.114, 183.719 64.216, 219.432 99.922 L 284.363 164.841 287.682 160.174 L 291 155.506 222.753 87.253 C 185.217 49.714, 154.278 19, 154 19 C 153.722 19, 122.791 49.712, 85.265 87.250 M 99.247 107.253 L 45 161.507 45 223.253 L 45 285 51 285 L 57 285 57 230 L 57 175 102.500 175 L 148 175 148 230 L 148 285 205.500 285 L 263 285 263 223.247 L 263 161.493 208.747 107.247 C 178.907 77.411, 154.268 53, 153.993 53 C 153.718 53, 129.082 77.414, 99.247 107.253 M 70 70.230 L 70 83.460 79.500 74 C 88.147 65.389, 89 64.201, 89 60.770 L 89 57 79.500 57 L 70 57 70 70.230 M 163 204 L 163 233 160 233 L 157 233 157 239.364 L 157 245.728 161.640 246.364 C 167.680 247.192, 237.320 247.192, 243.360 246.364 L 248 245.728 248 239.364 L 248 233 245 233 L 242 233 242 204 L 242 175 202.500 175 L 163 175 163 204 M 176 210 L 176 233 202.500 233 L 229 233 229 210 L 229 187 202.500 187 L 176 187 176 210 M 112 245.500 L 112 252 120.500 252 L 129 252 129 245.500 L 129 239 120.500 239 L 112 239 112 245.500" stroke="none" fill="#000000" fill-rule="evenodd"></path>
    </g>
</svg>