<svg id="svgContent" version="1.1" width="321" height="286" xmlns="http://www.w3.org/2000/svg" xmlns:xlink="http://www.w3.org/1999/xlink" viewBox="0 0 321 286">
    <g id="svgPath">
        <path d="M 98.870 2.506 C 84.193 7.212, 74 21.139, 74 36.486 C 74 41.841, 73.610 43.317, 71.635 45.448 C 68.919 48.379, 68 48.637, 68 46.467 C 68 44.287, 63.576 35.838, 60.553 32.245 C 59.146 30.573, 55.717 27.744, 52.933 25.957 L 47.872 22.709 43.552 26.949 C 36.651 33.722, 33.564 40.869, 33.165 51 C 32.731 62.014, 35.100 68.749, 41.992 76.090 L 46.886 81.303 45.080 84.901 C 44.087 86.881, 42.513 90.826, 41.583 93.669 L 39.893 98.839 35.987 94.602 C 31.219 89.429, 23.245 85.381, 15.384 84.143 C 8.702 83.091, 8.926 82.925, 6.460 90.766 C 5.221 94.704, 4.881 98.397, 5.209 104.338 C 5.744 114.046, 8.509 120.253, 15.166 126.693 C 19.386 130.775, 28.861 135.971, 32.121 135.990 C 33.444 135.998, 33.873 137.680, 34.457 145.143 C 34.851 150.172, 35.410 154.904, 35.699 155.658 C 36.038 156.542, 34.324 156.076, 30.890 154.351 C 23.882 150.831, 13.721 150.067, 5.541 152.445 L -0.259 154.131 0.234 161.027 C 1.127 173.507, 8.704 184.578, 20 189.906 C 24.854 192.195, 26.760 192.500, 36.232 192.500 L 46.965 192.500 48.117 195.283 C 48.751 196.814, 50.784 200.581, 52.635 203.654 C 54.486 206.728, 56 209.358, 56 209.499 C 56 209.640, 52.063 209.956, 47.250 210.201 C 37.570 210.693, 31.926 212.957, 24.564 219.299 L 20.628 222.689 23.429 227.469 C 29.676 238.130, 37.558 243.853, 48.938 245.996 C 58.326 247.763, 70.606 244.425, 77.110 238.337 L 79.720 235.894 82.610 238.313 C 84.200 239.644, 88.149 242.584, 91.386 244.846 C 96.260 248.251, 96.948 249.069, 95.386 249.603 C 88.793 251.858, 82.937 255.291, 79.232 259.074 C 74.929 263.467, 69.953 272.073, 70.055 274.946 C 70.136 277.216, 75.320 280.958, 82.278 283.768 C 90.692 287.167, 102.908 286.685, 110.784 282.643 C 117.242 279.330, 123.093 273.462, 126.243 267.140 L 128.607 262.397 133.553 263.679 C 142.278 265.941, 142.596 265.794, 143.692 258.993 L 144.659 252.985 140.580 251.996 C 116.824 246.237, 98.261 236.191, 82.504 220.566 C 65.574 203.778, 54.402 183.332, 49.410 160 C 47.227 149.796, 46.945 125.924, 48.891 116.044 C 52.370 98.383, 60.177 80.590, 70.449 66.912 C 78.661 55.977, 87.078 48, 90.403 48 C 95.989 48, 104.400 43.760, 110.080 38.080 C 117.712 30.448, 120.374 23.609, 120.334 11.736 C 120.318 6.915, 120.012 2.678, 119.654 2.320 C 118.242 0.909, 103.438 1.041, 98.870 2.506 M 203.302 1.699 C 201.557 2.037, 200.963 3.063, 200.423 6.668 C 199.451 13.145, 200.472 21.728, 202.872 27.259 C 207.014 36.806, 217.970 45.813, 227.555 47.552 C 233.904 48.703, 236.581 50.579, 243.570 58.769 C 259.191 77.072, 268.466 96.624, 272.073 118.852 C 273.460 127.396, 273.460 146.604, 272.073 155.148 C 268.004 180.222, 256.167 202.843, 237.848 220.555 C 232.706 225.526, 225.634 231.538, 222.130 233.915 C 212.683 240.326, 196.364 247.776, 186.072 250.377 C 181.080 251.639, 176.732 252.935, 176.410 253.257 C 176.088 253.578, 176.346 256.352, 176.984 259.421 C 178.288 265.703, 178.501 265.795, 186.798 263.642 L 192.032 262.285 193.953 266.627 C 196.449 272.269, 204.183 279.940, 210.500 283.038 C 214.329 284.916, 217.490 285.569, 224 285.830 C 234.018 286.231, 241.355 283.998, 247.514 278.675 L 251.322 275.383 248.751 269.766 C 247.336 266.677, 244.301 262.113, 242.007 259.623 C 237.852 255.116, 229.238 250, 225.804 250 C 222.610 250, 223.850 248.456, 230.921 243.624 C 234.728 241.023, 238.389 238.237, 239.056 237.432 C 240.105 236.168, 240.695 236.292, 243.385 238.340 C 261.826 252.379, 286.697 247.376, 297.043 227.547 L 299.500 222.838 294.720 218.480 C 288.382 212.700, 281.005 210, 271.554 210 L 264.183 210 269.091 201.750 C 271.790 197.213, 273.999 193.225, 273.999 192.889 C 274 192.553, 278.163 192.487, 283.250 192.742 C 291.017 193.131, 293.406 192.863, 298.147 191.069 C 311.288 186.099, 320.912 171.893, 320.984 157.361 C 320.999 154.343, 320.750 154.155, 314.533 152.472 C 306.559 150.313, 297.383 150.852, 290.534 153.882 C 287.870 155.060, 285.606 155.906, 285.502 155.762 C 285.398 155.618, 285.521 151.113, 285.776 145.750 C 286.216 136.482, 286.348 136, 288.460 136 C 292.227 136, 302.638 130.143, 306.531 125.834 C 308.565 123.582, 311.415 119.211, 312.865 116.120 C 316.405 108.570, 316.647 95.007, 313.368 87.901 L 311.246 83.301 305.752 84.047 C 297.960 85.104, 291.246 88.361, 285.773 93.736 C 283.173 96.290, 280.902 98.182, 280.727 97.940 C 280.551 97.698, 279.006 93.747, 277.292 89.160 L 274.178 80.819 278.059 76.819 C 280.194 74.619, 283.192 70.272, 284.721 67.160 C 287.135 62.244, 287.500 60.317, 287.500 52.500 C 287.500 44.827, 287.105 42.657, 284.819 37.780 C 283.344 34.633, 280.047 30.027, 277.492 27.544 C 272.864 23.046, 272.834 23.035, 269.808 24.599 C 264.071 27.566, 257.998 34.187, 254.632 41.145 L 251.327 47.977 248.982 45.481 C 247.049 43.423, 246.678 42.061, 246.874 37.742 C 247.364 26.927, 241.626 15.227, 232.335 8.094 C 225.138 2.569, 212.811 -0.146, 203.302 1.699 M 101.615 15.472 C 96.509 17.292, 90.415 23.346, 88.414 28.586 C 85.942 35.058, 86.546 36.015, 92.075 34.388 C 99.320 32.256, 105.776 25.064, 107.459 17.250 C 108.263 13.518, 107.635 13.327, 101.615 15.472 M 213 15.026 C 213 18.155, 215.548 24.209, 218.238 27.473 C 221.245 31.120, 226.290 34.185, 231.250 35.377 C 233.464 35.909, 233.998 35.694, 233.990 34.269 C 233.972 30.953, 229.294 22.425, 225.949 19.611 C 221.135 15.560, 213 12.679, 213 15.026 M 48.104 41.806 C 44.482 48.574, 45.179 58.924, 49.653 64.789 L 52.308 68.271 54.112 64.886 C 57.688 58.175, 55.826 45.420, 50.643 41.119 C 49.408 40.094, 48.954 40.217, 48.104 41.806 M 267.296 44.750 C 263.903 50.529, 263.485 59.439, 266.354 64.821 C 267.886 67.693, 268.340 67.963, 269.721 66.821 C 272.395 64.608, 274.955 57.766, 274.978 52.770 C 275 47.961, 272.479 40, 270.934 40 C 270.466 40, 268.829 42.138, 267.296 44.750 M 117.022 88.478 L 72.552 132.957 76.479 136.978 C 78.639 139.190, 80.863 141, 81.422 141 C 81.980 141, 84.814 138.653, 87.719 135.784 L 93 130.568 93 163.784 L 93 197 109.500 197 L 126 197 126 168.500 L 126 140 136 140 L 146 140 146 168.500 L 146 197 188 197 L 230 197 230 163.784 L 230 130.568 235.511 136.010 L 241.021 141.453 245.506 136.968 L 249.991 132.483 205.741 88.241 L 161.492 44 117.022 88.478 M 133.243 90.256 L 105 118.513 105 151.256 L 105 184 109.500 184 L 114 184 114 155.481 L 114 126.962 136.250 127.231 L 158.500 127.500 158.766 155.750 L 159.031 184 188.016 184 L 217 184 217 150.743 L 217 117.487 189.243 89.743 L 161.487 62 133.243 90.256 M 17.516 99.951 C 15.927 104.955, 21.569 116.547, 27.290 120.035 C 32.535 123.233, 33.367 122.748, 32.674 116.898 C 31.911 110.455, 28.241 104.132, 23.259 100.680 C 18.641 97.479, 18.313 97.438, 17.516 99.951 M 296.882 101.259 C 291.142 105.638, 287.783 112.266, 288.189 118.414 L 288.500 123.118 293.187 120.007 C 298.868 116.235, 303 108.782, 303 102.304 C 303 99.937, 302.585 98, 302.078 98 C 301.570 98, 299.233 99.467, 296.882 101.259 M 168 147.500 L 168 167 187.500 167 L 207 167 207 147.500 L 207 128 187.500 128 L 168 128 168 147.500 M 181 147.500 L 181 154 187.500 154 L 194 154 194 147.500 L 194 141 187.500 141 L 181 141 181 147.500 M 14 165.422 C 14 168.148, 20.560 175.516, 24.976 177.750 C 29.366 179.971, 37 180.836, 37 179.113 C 37 176.451, 30.062 168.391, 26 166.334 C 20.827 163.715, 14 163.197, 14 165.422 M 296.500 165.389 C 290.595 167.968, 284 175.124, 284 178.950 C 284 180.840, 291.588 180.051, 296.093 177.693 C 300.051 175.621, 307 167.462, 307 164.887 C 307 163.556, 299.922 163.894, 296.500 165.389 M 44.466 222.910 C 42.797 223.322, 40.608 224.120, 39.602 224.683 C 37.899 225.636, 37.971 225.894, 40.636 228.385 C 46.109 233.503, 55.279 234.887, 63.283 231.803 C 65.979 230.763, 66.010 230.669, 64.283 228.759 C 60.179 224.220, 50.606 221.395, 44.466 222.910 M 266.502 223.127 C 261.869 224.222, 254.773 228.818, 255.295 230.385 C 255.880 232.139, 264.209 234.143, 268.342 233.523 C 272.939 232.834, 278.812 229.974, 281.315 227.206 C 283.092 225.241, 283.059 225.176, 279.815 224.171 C 274.168 222.420, 270.655 222.145, 266.502 223.127 M 94.500 263.836 C 92.300 264.881, 89.387 266.944, 88.026 268.421 C 85.944 270.681, 85.785 271.253, 87.026 272.037 C 90.222 274.059, 100.145 273.481, 104.999 270.991 C 109.143 268.865, 113.644 264.311, 112.617 263.284 C 112.219 262.885, 108.879 262.419, 105.196 262.248 C 100.194 262.015, 97.488 262.417, 94.500 263.836 M 209.750 262.689 C 208.787 262.941, 208 263.585, 208 264.121 C 208 265.708, 213.230 270.150, 217 271.764 C 220.864 273.419, 229.216 273.708, 232.807 272.311 L 235.113 271.414 233.053 268.794 C 228.810 263.401, 217.932 260.551, 209.750 262.689" stroke="none" fill="#000000" fill-rule="evenodd"></path>
    </g>
</svg>