<svg id="svgContent" version="1.1" width="306" height="310" style="position: relative; width: 306px; height: 310px; margin:auto; user-select: none; cursor: default;" xmlns="http://www.w3.org/2000/svg" xmlns:xlink="http://www.w3.org/1999/xlink" viewBox="0 0 306 310">
    <g id="svgPath">
        <path d="M 150.370 2.250 C 150.701 3.488, 150.979 6.341, 150.986 8.591 L 151 12.682 157 12.601 L 163 12.519 163.014 8.510 C 163.021 6.304, 163.299 3.488, 163.630 2.250 C 164.215 0.068, 164.013 -0, 157 -0 C 149.987 0, 149.785 0.068, 150.370 2.250 M 131.220 2.449 C 128.316 3.152, 125.738 3.929, 125.491 4.176 C 125.244 4.422, 125.771 7.184, 126.661 10.312 C 128.419 16.495, 128.660 16.618, 135.557 14.881 C 140.387 13.665, 140.445 13.525, 139.364 5.640 C 138.668 0.560, 138.802 0.613, 131.220 2.449 M 174.651 2.665 C 174.356 3.674, 173.821 6.580, 173.463 9.122 L 172.811 13.745 177.656 14.573 C 180.320 15.028, 182.921 15.423, 183.435 15.451 C 184.275 15.495, 186.933 7.184, 186.981 4.361 C 186.991 3.735, 185.313 2.917, 183.250 2.543 C 181.188 2.169, 178.530 1.631, 177.344 1.347 C 175.832 0.985, 175.028 1.378, 174.651 2.665 M 196.118 12.169 C 194.953 14.973, 194 17.679, 194 18.182 C 194 19.108, 201.619 22.938, 203.542 22.978 C 204.115 22.990, 205.769 20.582, 207.218 17.627 L 209.854 12.254 207.177 11.003 C 205.705 10.314, 203.091 9.148, 201.368 8.412 L 198.237 7.072 196.118 12.169 M 106.741 11.068 L 100.983 14.041 103.970 19.270 C 105.612 22.147, 107.304 24.500, 107.728 24.500 C 109.712 24.500, 117.993 20.373, 117.996 19.383 C 118.002 17.698, 113.824 7.993, 113.117 8.048 C 112.778 8.075, 109.909 9.434, 106.741 11.068 M 216.216 23.058 C 214.409 25.820, 213.152 28.437, 213.422 28.874 C 213.692 29.310, 215.779 30.961, 218.061 32.543 L 222.210 35.418 225.130 31.959 C 230.488 25.610, 230.488 25.528, 225.109 21.580 C 222.426 19.611, 220.067 18.008, 219.866 18.018 C 219.665 18.028, 218.022 20.296, 216.216 23.058 M 85.104 24.796 C 80.175 29.046, 80.243 30.041, 85.823 35.350 L 88.818 38.200 93.370 34.850 C 95.874 33.008, 97.940 31.176, 97.961 30.779 C 98.033 29.455, 91.630 21, 90.557 21.003 C 89.976 21.004, 87.522 22.711, 85.104 24.796 M 233.982 37.518 L 229.570 42.014 231.700 44.144 L 233.829 46.274 238.415 42.516 C 240.937 40.450, 243 38.442, 243 38.054 C 243 37.666, 241.964 36.375, 240.697 35.185 L 238.395 33.022 233.982 37.518 M 68.764 40.450 C 67.044 42.817, 67.072 42.874, 71.868 46.889 L 76.707 50.941 79.103 48.389 L 81.500 45.838 77 41.949 C 74.525 39.810, 72.050 38.060, 71.500 38.061 C 70.950 38.062, 69.719 39.137, 68.764 40.450 M 245.750 50.687 C 243.137 52.612, 241 54.545, 241 54.983 C 241 55.420, 241.787 56.713, 242.750 57.855 L 244.500 59.932 249.750 56.725 C 252.637 54.961, 254.998 53.289, 254.995 53.009 C 254.992 52.729, 253.980 51.305, 252.745 49.844 L 250.500 47.188 245.750 50.687 M 61.557 50.223 C 60.701 51.445, 60 52.756, 60 53.137 C 60 53.517, 62.279 55.231, 65.065 56.945 L 70.130 60.061 72.032 57.781 C 73.078 56.526, 73.948 55.275, 73.965 55 C 74.003 54.385, 64.719 48, 63.786 48 C 63.416 48, 62.413 49, 61.557 50.223 M 21 91.500 C 21 107.278, 21.221 110, 22.500 110 C 23.819 110, 24 118.500, 24 180.500 L 24 251 12.952 251 L 1.905 251 2.202 257.250 L 2.500 263.500 154.250 263.753 L 306 264.006 306 257.503 L 306 251 299.500 251 L 293 251 293 180.500 C 293 118.500, 293.181 110, 294.500 110 C 295.779 110, 296 107.278, 296 91.500 L 296 73 245.500 73 L 195 73 195 91.500 C 195 107.278, 195.221 110, 196.500 110 C 197.793 110, 198 113.444, 198 135 L 198 160 158.500 160 L 119 160 119 135 C 119 113.444, 119.207 110, 120.500 110 C 121.779 110, 122 107.278, 122 91.500 L 122 73 71.500 73 L 21 73 21 91.500 M 34 91.500 L 34 97 71.500 97 L 109 97 109 91.500 L 109 86 71.500 86 L 34 86 34 91.500 M 208 91.500 L 208 97 245.500 97 L 283 97 283 91.500 L 283 86 245.500 86 L 208 86 208 91.500 M 36 180.500 L 36 251 48.500 251 L 61 251 61 205.500 L 61 160 83.500 160 L 106 160 106 135 L 106 110 71 110 L 36 110 36 180.500 M 210 135 L 210 160 230 160 L 250 160 250 205.500 L 250 251 265 251 L 280 251 280 180.500 L 280 110 245 110 L 210 110 210 135 M 43 124.500 L 43 131 49 131 L 55 131 55 124.500 L 55 118 49 118 L 43 118 43 124.500 M 65 124.500 L 65 131 71 131 L 77 131 77 124.500 L 77 118 71 118 L 65 118 65 124.500 M 87 124.500 L 87 131 93 131 L 99 131 99 124.500 L 99 118 93 118 L 87 118 87 124.500 M 217 124.500 L 217 131 223 131 L 229 131 229 124.500 L 229 118 223 118 L 217 118 217 124.500 M 239 124.500 L 239 131 245 131 L 251 131 251 124.500 L 251 118 245 118 L 239 118 239 124.500 M 261 124.500 L 261 131 267 131 L 273 131 273 124.500 L 273 118 267 118 L 261 118 261 124.500 M 43 145.500 L 43 152 49 152 L 55 152 55 145.500 L 55 139 49 139 L 43 139 43 145.500 M 65 145.500 L 65 152 71 152 L 77 152 77 145.500 L 77 139 71 139 L 65 139 65 145.500 M 87 145.500 L 87 152 93 152 L 99 152 99 145.500 L 99 139 93 139 L 87 139 87 145.500 M 217 145.500 L 217 152 223 152 L 229 152 229 145.500 L 229 139 223 139 L 217 139 217 145.500 M 239 145.500 L 239 152 245 152 L 251 152 251 145.500 L 251 139 245 139 L 239 139 239 145.500 M 261 145.500 L 261 152 267 152 L 273 152 273 145.500 L 273 139 267 139 L 261 139 261 145.500 M 43 166.500 L 43 173 49 173 L 55 173 55 166.500 L 55 160 49 160 L 43 160 43 166.500 M 261 166.500 L 261 173 267 173 L 273 173 273 166.500 L 273 160 267 160 L 261 160 261 166.500 M 74 177 L 74 182 155.500 182 L 237 182 237 177 L 237 172 155.500 172 L 74 172 74 177 M 43 187.500 L 43 194 49 194 L 55 194 55 187.500 L 55 181 49 181 L 43 181 43 187.500 M 261 187.500 L 261 194 267 194 L 273 194 273 187.500 L 273 181 267 181 L 261 181 261 187.500 M 74 223 L 74 251 82 251 L 90 251 90 229 L 90 207 158.500 207 L 227 207 227 229 L 227 251 232 251 L 237 251 237 223 L 237 195 155.500 195 L 74 195 74 223 M 43 208.500 L 43 215 49 215 L 55 215 55 208.500 L 55 202 49 202 L 43 202 43 208.500 M 261 208.500 L 261 215 267 215 L 273 215 273 208.500 L 273 202 267 202 L 261 202 261 208.500 M 103 235 L 103 251 127.500 251 L 152 251 152 235 L 152 219 127.500 219 L 103 219 103 235 M 165 235 L 165 251 189.500 251 L 214 251 214 235 L 214 219 189.500 219 L 165 219 165 235 M 43 229.500 L 43 236 49 236 L 55 236 55 229.500 L 55 223 49 223 L 43 223 43 229.500 M 261 229.500 L 261 236 267 236 L 273 236 273 229.500 L 273 223 267 223 L 261 223 261 229.500 M 88 280 L 88 286 158.500 286 L 229 286 229 280 L 229 274 158.500 274 L 88 274 88 280 M 63 303 L 63 309 158.500 309 L 254 309 254 303 L 254 297 158.500 297 L 63 297 63 303" stroke="none" fill="#000000" fill-rule="evenodd"></path>
    </g>
</svg>