<svg version="1.0" xmlns="http://www.w3.org/2000/svg" width="512.000000pt" height="512.000000pt" viewBox="0 0 512.000000 512.000000" preserveAspectRatio="xMidYMid meet">

    <g transform="translate(0.000000,512.000000) scale(0.100000,-0.100000)" fill="#000000" stroke="none">
        <path d="M2315 5109 c-800 -83 -1501 -517 -1927 -1196 -494 -786 -516 -1810
-56 -2613 243 -423 598 -770 1017 -994 357 -191 751 -296 1121 -300 l135 -1 3
993 2 992 -275 0 -275 0 0 320 0 320 273 2 272 3 6 335 c5 304 7 342 27 415
77 276 260 460 537 537 72 20 104 22 315 22 129 1 279 -3 333 -8 l97 -8 0
-288 0 -288 -237 -4 c-237 -3 -238 -3 -290 -30 -110 -58 -123 -105 -123 -435
l0 -253 315 0 c173 0 315 -3 315 -7 0 -5 -18 -145 -40 -312 -22 -168 -40 -308
-40 -313 0 -4 -124 -8 -275 -8 l-275 0 0 -945 c0 -520 2 -945 4 -945 19 0 257
90 347 131 301 138 534 304 774 550 209 215 338 400 471 674 118 244 199 516
236 795 16 124 16 509 0 625 -84 591 -328 1089 -733 1494 -397 396 -891 644
-1454 727 -123 18 -478 26 -600 13z" />
    </g>
</svg>